PathFileType  4	(X/Y/Z) C:\Users\antoi\Documents\MyRepositories\mobilecap\ResultsAnalysis
DataRate	CameraRate	NumFrames	NumMarkers	Units	OrigDataRate	OrigDataStartFrame	OrigNumFrames
100.0	100.0	4	51	mm	100.0	117	311
Frame#	Time	r_knee			r_shank_antsup			r_ankle			r_calc			r_5meta			r_toe			L_knee			L_shank_antsup			L_ankle			L_calc			L_5meta			L_toe			r_sh2			r_sh3			r_sh4			L_sh2			L_sh3			r_thigh1			r_thigh2			r_thigh3			r_thigh4			r_thigh5			L_thigh1			L_thigh2			L_thigh3			L_thigh4			r.ASIS			r.PSIS			L.ASIS			L.PSIS			C7			R_Shoulder			L_Shoulder			R_Sternum			L_Sternum			R_humerus			R_elbow_med			R_elbow_lat			R_forearm			R_wrist_radius			R_wrist_ulna			L_humerus			L_elbow_med			L_elbow_lat			L_forearm			L_wrist_radius			L_wrist_ulna			R_HJC			L_HJC			R_HJC_reg			L_HJC_reg			
		X1	Y1	Z1	X2	Y2	Z2	X3	Y3	Z3	X4	Y4	Z4	X5	Y5	Z5	X6	Y6	Z6	X7	Y7	Z7	X8	Y8	Z8	X9	Y9	Z9	X10	Y10	Z10	X11	Y11	Z11	X12	Y12	Z12	X13	Y13	Z13	X14	Y14	Z14	X15	Y15	Z15	X16	Y16	Z16	X17	Y17	Z17	X18	Y18	Z18	X19	Y19	Z19	X20	Y20	Z20	X21	Y21	Z21	X22	Y22	Z22	X23	Y23	Z23	X24	Y24	Z24	X25	Y25	Z25	X26	Y26	Z26	X27	Y27	Z27	X28	Y28	Z28	X29	Y29	Z29	X30	Y30	Z30	X31	Y31	Z31	X32	Y32	Z32	X33	Y33	Z33	X34	Y34	Z34	X35	Y35	Z35	X36	Y36	Z36	X37	Y37	Z37	X38	Y38	Z38	X39	Y39	Z39	X40	Y40	Z40	X41	Y41	Z41	X42	Y42	Z42	X43	Y43	Z43	X44	Y44	Z44	X45	Y45	Z45	X46	Y46	Z46	X47	Y47	Z47	X48	Y48	Z48	X49	Y49	Z49	X50	Y50	Z50	X51	Y51	Z51	

117	1.16000000	-705.48179	863.46632	-408.14103	-689.65711	791.42805	-410.11276	-892.42423	523.73334	-418.82761	-944.31352	556.14287	-463.92366	-878.57045	401.08713	-410.64960	-832.08830	388.11140	-459.69441	-761.89892	860.94308	-752.59454	-762.36382	766.68617	-748.69438	-971.99491	539.08597	-748.59981	-1023.74535	552.74790	-688.58827	-959.11290	420.57513	-781.83868	-900.90062	395.09227	-745.21194	-755.89425	699.99604	-399.80066	-744.25042	837.49876	-380.81239	-821.32369	746.96735	-379.79990	-823.51301	825.65834	-778.85074	-895.15847	724.92736	-784.83597	-713.96204	1116.16665	-375.24587	-681.54471	1007.29360	-383.39601	-788.02596	974.99150	-405.15556	-822.07179	1085.83145	-388.15234	-739.10326	968.38101	-380.81640	-752.30859	1143.74768	-772.01564	-730.31880	1006.29755	-767.59688	-862.57160	1129.00444	-759.52512	-840.11139	991.36009	-736.39847	-692.26664	1297.98693	-466.59374	-881.81773	1383.43438	-515.02539	-706.50705	1310.70969	-673.46726	-883.52972	1387.42565	-595.78770	-690.61646	1768.23592	-517.40272	-648.82547	1735.14266	-399.39270	-657.17077	1761.77465	-629.46690	-580.34373	1693.73478	-498.01352	-578.05296	1693.88126	-541.32642	-607.66959	1699.19066	-306.43764	-595.99234	1535.52944	-157.28831	-577.94465	1598.22467	-131.02504	-484.95245	1618.98833	-141.08573	-344.06883	1605.16743	-157.86419	-345.26401	1595.96178	-120.75872	-635.03715	1773.17345	-725.94664	-564.93603	1684.86921	-922.31198	-575.71955	1754.92455	-916.82569	-474.43823	1794.42985	-912.50948	-350.37023	1812.58166	-900.76899	-349.20519	1811.54209	-938.90570	-790.74243	1234.43276	-463.01685	-803.85433	1249.37775	-669.56936	-780.46994	1256.97838	-494.68456	-783.37318	1263.74538	-631.60355	
118	1.17000000	-692.12969	869.47976	-407.19507	-673.88862	797.76359	-409.79445	-866.95415	522.15271	-419.26179	-919.66370	552.97230	-464.81444	-849.13613	399.63670	-412.52713	-801.70341	388.96638	-461.27009	-749.94416	866.23937	-752.88816	-748.78820	772.39483	-749.79195	-952.89321	539.53775	-749.55555	-1003.15302	550.72945	-687.61416	-937.99029	422.21933	-785.70694	-878.12465	397.48574	-751.34279	-736.55106	703.78579	-400.13600	-731.48485	840.90524	-380.63131	-803.58558	747.86446	-379.92127	-812.00321	829.95241	-778.45476	-880.67972	727.12476	-784.67452	-703.93027	1122.15470	-374.84371	-670.18260	1013.61876	-382.62478	-776.06601	980.01541	-404.75602	-811.71068	1090.34737	-388.33076	-727.25136	974.05298	-380.29733	-740.88732	1148.72005	-772.03679	-717.88210	1011.44795	-767.84304	-851.04247	1133.08978	-760.67157	-827.81406	995.33796	-737.69214	-683.15485	1302.92694	-466.19776	-872.75614	1388.39298	-515.35856	-696.96986	1315.41783	-673.43599	-874.15037	1392.46186	-595.99191	-679.67753	1773.14094	-515.47959	-637.75794	1738.64699	-396.80417	-646.46352	1766.17309	-628.84693	-569.96889	1697.79648	-496.82448	-568.42250	1698.07813	-540.00427	-597.48321	1700.22994	-303.66393	-591.53056	1535.85199	-155.59251	-572.33125	1597.21511	-128.98034	-478.16457	1614.80675	-136.72611	-337.46719	1595.78610	-148.25565	-339.99212	1586.44923	-111.25323	-626.50290	1776.54820	-726.66412	-562.80534	1686.61736	-923.81688	-572.43425	1757.00526	-918.58586	-470.51856	1794.72231	-917.16237	-345.21486	1810.56616	-908.56931	-345.49690	1809.46687	-947.37100	-781.76234	1239.43864	-462.93827	-794.39239	1254.19379	-669.53502	-771.47814	1261.59260	-494.73780	-773.84959	1268.51223	-631.87118	
119	1.18000000	-679.69881	874.51968	-406.46860	-659.29463	803.46659	-408.71987	-840.86145	519.53512	-419.81981	-894.43038	548.62384	-466.20842	-818.63882	397.67893	-413.46911	-770.12615	389.12619	-461.66377	-739.05980	870.52304	-753.23634	-735.86737	777.48643	-751.30798	-932.45381	538.26229	-751.51642	-982.02621	547.28323	-688.31239	-914.70145	421.62445	-788.88756	-853.42572	398.68675	-756.03506	-717.94002	706.82397	-399.73178	-719.60538	843.37019	-380.57938	-786.47073	747.57495	-379.42046	-801.46945	833.24292	-777.89129	-866.63871	728.48887	-784.63010	-694.58940	1127.22188	-373.96569	-659.47042	1019.14931	-381.86471	-764.88687	984.40347	-404.58546	-801.83609	1094.22456	-388.52962	-716.38559	978.77494	-380.08572	-730.04176	1152.59306	-772.07469	-706.26762	1015.53816	-768.37103	-840.19005	1136.22503	-761.58119	-816.31535	998.57175	-738.51085	-674.13625	1306.88646	-465.84117	-863.97247	1392.23616	-515.85416	-687.55735	1319.24555	-673.59833	-865.05272	1396.16927	-596.33923	-668.44964	1777.15079	-513.42779	-626.24242	1741.20456	-394.14785	-636.18906	1769.68921	-628.48864	-559.45282	1700.97923	-495.30578	-558.37307	1701.06820	-538.66971	-587.03318	1700.33290	-300.98311	-586.39426	1534.89452	-154.50842	-566.10287	1594.96543	-127.28784	-470.99387	1609.31145	-132.64687	-330.93126	1584.89426	-138.93228	-334.84453	1575.56861	-102.15034	-617.77383	1779.11831	-727.20149	-560.45345	1687.14238	-925.06505	-568.93809	1757.83801	-920.06958	-466.49430	1793.71751	-921.49848	-340.70985	1807.27069	-915.86794	-342.77137	1805.47668	-954.57240	-772.80858	1243.35794	-463.00711	-784.95130	1257.92432	-669.64607	-762.60270	1265.39919	-494.73062	-764.44719	1272.11604	-632.20156	
120	1.19000000	-668.03009	878.46489	-406.03522	-645.71376	808.36214	-407.24031	-814.51046	516.22464	-420.10366	-868.69302	543.25969	-467.56286	-787.18753	395.45837	-413.47312	-737.53033	389.05777	-460.74843	-728.75834	873.86240	-753.71791	-723.42724	782.02083	-753.31692	-910.68705	535.48633	-754.16643	-960.36391	542.84066	-690.53235	-889.44815	419.27563	-791.43716	-827.23489	398.69994	-758.98248	-700.06854	709.14453	-398.57069	-707.98439	845.37190	-380.61999	-770.39152	746.69272	-378.58517	-791.63594	835.56927	-777.15367	-852.84978	729.21207	-784.73939	-685.64962	1131.28927	-373.04562	-649.42145	1023.55253	-381.07665	-754.50024	987.89727	-404.68737	-792.37035	1097.38114	-388.92893	-706.18789	982.65427	-379.87547	-719.81187	1155.53454	-772.44983	-695.43365	1018.62708	-768.83118	-829.99162	1138.48211	-762.29817	-805.54316	1001.11733	-738.83243	-665.25441	1309.99941	-465.34378	-855.40803	1394.88410	-516.52829	-678.17644	1322.10911	-673.69170	-856.14793	1398.62968	-596.85933	-656.95788	1780.14380	-511.47859	-614.45648	1742.89380	-391.54585	-626.02227	1772.45685	-627.77526	-548.83793	1703.28459	-493.17609	-547.86175	1703.02278	-536.91127	-576.12624	1699.44871	-298.62572	-580.46049	1532.62080	-154.20038	-559.29702	1591.74334	-125.90680	-463.58833	1602.57579	-128.88110	-324.50208	1572.58348	-129.93404	-329.85297	1563.80418	-93.26386	-608.67347	1780.92267	-727.45214	-557.92509	1686.65166	-925.99975	-565.33118	1757.60000	-921.25872	-462.30629	1791.51517	-925.33240	-336.86865	1802.88541	-922.75988	-340.63228	1799.98893	-960.83979	-763.90709	1246.27895	-463.03957	-775.39075	1260.50150	-669.74015	-753.76268	1268.19249	-494.60434	-755.03229	1274.61941	-632.45427	
